<svg xmlns="http://www.w3.org/2000/svg" width="512" height="512" style="shape-rendering:geometricPrecision;text-rendering:geometricPrecision;image-rendering:optimizeQuality;fill-rule:evenodd;clip-rule:evenodd"><path d="M407.5 16.5q1.989 22.758 0 46a13460 13460 0 0 0-138 138 27208 27208 0 0 0 138.5 139q1 22.5 0 45A23903 23903 0 0 1 224.5 200a18752 18752 0 0 1 183-183.5m-304 111a18034 18034 0 0 1 184 184 15987 15987 0 0 1-183.5 185 529 529 0 0 1 0-46 27208 27208 0 0 0 138.5-139 13480 13480 0 0 1-138-138 530 530 0 0 1-1-46"/></svg>